<svg width="257.99999999999994" height="67.71857925442062" viewBox="0 0 369.89473684210526 97.08816299470995" class="looka-1j8o68f"><defs id="SvgjsDefs1011"></defs><g id="SvgjsG1012" featurekey="symbolFeature-0" transform="matrix(1.0622337130620343,0,0,1.0622337130620343,-6.829595298638685,-4.886274978782857)" fill="#111111"><g xmlns="http://www.w3.org/2000/svg"><path d="M53.9,29.6c-1,0-1.8,0.8-1.8,1.8s0.8,1.8,1.8,1.8s1.8-0.8,1.8-1.8S54.9,29.6,53.9,29.6z M53.9,32.1c-0.4,0-0.7-0.3-0.7-0.7   c0-0.4,0.3-0.7,0.7-0.7s0.7,0.3,0.7,0.7C54.6,31.8,54.3,32.1,53.9,32.1z"></path><path d="M53.7,43.3c1,0,1.8-0.8,1.8-1.8s-0.8-1.8-1.8-1.8c-1,0-1.8,0.8-1.8,1.8S52.7,43.3,53.7,43.3z M53.7,40.8   c0.4,0,0.7,0.3,0.7,0.7c0,0.4-0.3,0.7-0.7,0.7S53,41.9,53,41.5C53,41.1,53.3,40.8,53.7,40.8z"></path><path d="M53.9,49.5c-1,0-1.8,0.8-1.8,1.8s0.8,1.8,1.8,1.8s1.8-0.8,1.8-1.8S54.9,49.5,53.9,49.5z M53.9,52c-0.4,0-0.7-0.3-0.7-0.7   s0.3-0.7,0.7-0.7s0.7,0.3,0.7,0.7S54.3,52,53.9,52z"></path><path d="M53.7,59.3c-1,0-1.8,0.8-1.8,1.8s0.8,1.8,1.8,1.8c1,0,1.8-0.8,1.8-1.8S54.7,59.3,53.7,59.3z M53.7,61.8   c-0.4,0-0.7-0.3-0.7-0.7s0.3-0.7,0.7-0.7s0.7,0.3,0.7,0.7S54.1,61.8,53.7,61.8z"></path><path d="M53.5,69c-1,0-1.8,0.8-1.8,1.8s0.8,1.8,1.8,1.8c1,0,1.8-0.8,1.8-1.8S54.5,69,53.5,69z M53.5,71.6c-0.4,0-0.7-0.3-0.7-0.7   c0-0.4,0.3-0.7,0.7-0.7s0.7,0.3,0.7,0.7C54.3,71.2,53.9,71.6,53.5,71.6z"></path><path d="M53.4,78.8c-1,0-1.8,0.8-1.8,1.8s0.8,1.8,1.8,1.8s1.8-0.8,1.8-1.8S54.4,78.8,53.4,78.8z M53.4,81.3c-0.4,0-0.7-0.3-0.7-0.7   c0-0.4,0.3-0.7,0.7-0.7s0.7,0.3,0.7,0.7C54.1,81,53.8,81.3,53.4,81.3z"></path><path d="M39,66.2c0,0.1-2.1,11.4-8.4,11.3l0,1.6c0.1,0,0.1,0,0.2,0c6.6,0,9.1-9.3,9.7-11.9h5.5v-1.6h-6.2   C39.4,65.5,39,65.8,39,66.2z"></path><path d="M63.4,66.2c-0.1-0.4-0.4-0.7-0.8-0.7h-6.5v1.6h5.9c0.6,2.6,3.1,11.9,9.7,11.9c0.1,0,0.1,0,0.2,0l0-1.6c0,0-0.1,0-0.1,0   C65.5,77.5,63.4,66.3,63.4,66.2z"></path><path d="M92.4,60.9c0.4-0.3,0.6-0.7,0.7-1.1c0.6-2.5-6-20.2-6.7-22.2c-1.7-4.7-7.6-20-10.2-22.1c-2.9-2.4-10-4-13-4.6L65,9.2   l-7.3-4.6l-7.8,9.6l-7.8-9.6l-7.3,4.6l1.4,1.3c-3.1,0.6-12.2,2.8-13.9,7.2c-0.3,0.8-1,2.4-1.9,4.6c-2.4,5.8-6.4,15.4-9.6,23.9   C5.8,60.3,6,63.2,7,64.2c0.1,0.1,0.2,0.2,0.2,0.2l-0.6,2c-0.1,0.4,0.1,0.9,0.5,1c7.1,2.6,9.7,3.1,10.6,3.1c0.4,0,0.5-0.1,0.6-0.1   c0.2-0.1,0.4-0.4,0.5-0.6c0.1-0.5,0.3-1.2,0.5-1.7c0.3,0,0.4,0,0.5,0c0.4,0,0.7-0.2,0.8-0.5l8.4-24l-4.2,49c0,0.4,0.3,0.8,0.7,0.9   c0.1,0,11.6,1.3,23.2,2c5.7,0.3,10.1,0.5,13.5,0.5c11.1,0,12.1-1.5,12.5-2.1c0.5-0.8,2-3-1.5-32.9c-0.9-7.3-1.8-14.6-2.5-20   l7.6,23.5c0.1,0.4,0.5,0.6,0.9,0.6c0.3,0,0.6-0.1,1-0.1c0.2,0.5,0.4,1.3,0.5,1.8c0.1,0.3,0.2,0.5,0.5,0.6c0.1,0.1,0.2,0.1,0.6,0.1   c1,0,3.5-0.5,10.6-3.1c0.4-0.1,0.6-0.6,0.5-1L92.4,60.9z M58.1,6.7l4.3,2.7l-10,9.4l-1.5-3.2L58.1,6.7z M41.8,6.7l7.2,8.8l-1.5,3.2   l-10-9.4L41.8,6.7z M17.4,68.9c-1.3-0.2-5.4-1.4-9-2.7l0.3-0.8c2.6,1.4,6.6,2.1,9,2.4C17.6,68.1,17.5,68.5,17.4,68.9z M31.2,37.2   c0-0.4-0.2-0.8-0.6-0.9c-0.4-0.1-0.8,0.1-0.9,0.5L19.3,66.4c-2.9-0.3-9.1-1.3-11.2-3.3c-0.2-0.3-0.8-2.3,4.4-16.6   c3.1-8.4,7.1-17.9,9.4-23.6c0.9-2.2,1.6-3.9,1.9-4.6c1.3-3.5,10.2-5.8,13.5-6.4l-0.1-0.4l7,6.6c0.1,1.1,0.1,3.1-1.5,4.4   c-0.2-0.1-0.3-0.1-0.5-0.1c-0.7,0-1.3,0.6-1.3,1.3c0,0.7,0.6,1.3,1.3,1.3c0.7,0,1.3-0.6,1.3-1.3c0-0.1,0-0.2-0.1-0.3   c1.4-1.1,1.9-2.7,1.9-4.1l2.6,2.4l0.6-1.4l-0.2,73.6c-6.9-0.4-14.5-1.1-21.9-1.9L31.2,37.2z M69.5,31.5c-0.1-0.4-0.6-0.6-1-0.5   c-0.4,0.1-0.7,0.5-0.6,0.9c3.2,22,7.5,58,5.6,61c-1,1.5-10.5,1.7-22.9,1l0.2-74.5l1,2.2l5.6-5.3c0,1.5,0.5,3.2,1.9,4.3   c0,0.1-0.1,0.2-0.1,0.3c0,0.7,0.6,1.3,1.3,1.3c0.7,0,1.3-0.6,1.3-1.3c0-0.7-0.6-1.3-1.3-1.3c-0.2,0-0.3,0-0.5,0.1   c-1.8-1.3-1.7-3.5-1.5-4.6l3-2.8c1.7,0.3,10.4,2,13.5,4.5c3.5,2.8,16.9,39.8,16.4,42.6c-0.3,1.4-6.2,2.9-11.7,3.7L69.5,31.5z    M82.3,65.6c-0.1-0.4-0.2-0.8-0.3-1.2c2.8-0.4,6.7-1.2,9-2.5l0.3,1C87.6,64.2,83.6,65.5,82.3,65.6z"></path></g></g><g id="SvgjsG1013" featurekey="nameFeature-0" transform="matrix(1.542432664768159,0,0,1.542432664768159,107.5577952199287,8.490810964738927)" fill="#111111"><path d="M9.28 12 l0 21.6 l10.32 0 l0 6.4 l-16.72 0 l0 0 l0 -28 l6.4 0 z M39.519999999999996 12 l7.8 28 l-6.4 0 l-1.12 -4.04 l-6.92 0 l-1.12 4.04 l-6.4 0 l7.8 -28 l6.36 0 z M34.68 29.439999999999998 l3.32 0 l-1.68 -5.96 z M65.12 22.8 c2.76 0 5 2.24 5 5 l0 7.24 c0 2.76 -2.24 4.96 -5 4.96 l-12.64 0 l0 -6.4 l11.2 0 l0 -4.36 l-6.24 0 c-2.76 0 -4.96 -2.24 -4.96 -5 l0 -7.24 c0 -2.76 2.24 -5 4.96 -5 l12.68 0 l0 6.44 l-11.24 0 l0 4.36 l6.24 0 z M75.88 12 l19.84 0 l0 6.44 l-6.72 0 l0 21.56 l-6.4 0 l0 -21.56 l-6.72 0 l0 -6.44 z M116.32 12 c2.72 0 5.04 2.24 5.04 5 l-0.08 18.04 c0 2.76 -2.24 4.96 -5 4.96 l-9.84 0 c-2.72 0 -4.96 -2.2 -4.96 -4.96 l0 -18.04 c0 -2.76 2.24 -5 4.96 -5 l9.88 0 z M114.88 33.6 l0 -15.16 l-7 0 l0 15.16 l7 0 z M141.84 12 c2.76 0 5 2.24 5 5 l0 10.52 c0 2.12 -1.32 3.92 -3.16 4.64 l3.16 7.84 l-6.8 0 l-3.04 -7.48 l-3.56 0 l0 7.48 l-6.4 0 l0 -28 l14.8 0 z M139.12 26.08 c0.72 0 1.32 -0.56 1.32 -1.28 l0 -5.08 c0 -0.72 -0.6 -1.28 -1.32 -1.28 l-5.68 0 l0 7.64 l5.68 0 z M170.07999999999998 18.44 l-11.2 0 l0 4.36 l8.04 0 l0 6.4 l-8.04 0 l0 4.4 l11.2 0 l0 6.4 l-17.6 0 l0 -28 l17.6 0 l0 6.44 z"></path></g></svg>